HIERARCHY
ROOT hips
{
  OFFSET 0 10.074487846421558 1.314567655973056
  CHANNELS 6 Xposition Yposition Zposition Yrotation Xrotation Zrotation
  JOINT spine
  {
    OFFSET -7.042773748992335e-31 0.5690686926897363 0
    CHANNELS 3 Yrotation Xrotation Zrotation
    JOINT chest
    {
      OFFSET 0 1.2435964857087873 0
      CHANNELS 3 Yrotation Xrotation Zrotation
      JOINT upperChest
      {
        OFFSET 0 1.194994586872362 0
        CHANNELS 3 Yrotation Xrotation Zrotation
        JOINT neck
        {
          OFFSET 0 1.515103653293861 0
          CHANNELS 3 Yrotation Xrotation Zrotation
          JOINT head
          {
            OFFSET 0 0.8111851616465653 0
            CHANNELS 3 Yrotation Xrotation Zrotation
            JOINT leftEye
            {
              OFFSET 0.27141371691966987 0.7490044407698551 0.18219031050045686
              CHANNELS 3 Yrotation Xrotation Zrotation
              End Site
              {
                OFFSET 0.27141371691966987 0.7490044407698551 0.18219031050045686
              }
            }
            JOINT rightEye
            {
              OFFSET -0.2714136877644943 0.7490044019380786 0.18219040411850668
              CHANNELS 3 Yrotation Xrotation Zrotation
              End Site
              {
                OFFSET -0.2714136877644943 0.7490044019380786 0.18219040411850668
              }
            }
          }
        }
        JOINT leftShoulder
        {
          OFFSET 0.4137993136083964 1.1593397335613034 0
          CHANNELS 3 Yrotation Xrotation Zrotation
          JOINT leftUpperArm
          {
            OFFSET 1.0096991868951026 0 0
            CHANNELS 3 Yrotation Xrotation Zrotation
            JOINT leftLowerArm
            {
              OFFSET 2.418380967671622 0 0
              CHANNELS 3 Yrotation Xrotation Zrotation
              JOINT leftHand
              {
                OFFSET 2.361538296260114 0 0
                CHANNELS 3 Yrotation Xrotation Zrotation
                JOINT leftIndexProximal
                {
                  OFFSET 0.7243699271447109 0.08118285989887508 0.2022042461579805
                  CHANNELS 3 Yrotation Xrotation Zrotation
                  JOINT leftIndexIntermediate
                  {
                    OFFSET 0.36553107045252053 -0.010567764853200323 -0.014102670024158437
                    CHANNELS 3 Yrotation Xrotation Zrotation
                    JOINT leftIndexDistal
                    {
                      OFFSET 0.22505120770060527 -0.007821041598631284 -0.007511611613336286
                      CHANNELS 3 Yrotation Xrotation Zrotation
                      End Site
                      {
                        OFFSET 0.22505120770060527 -0.007821041598631284 -0.007511611613336286
                      }
                    }
                  }
                }
                JOINT leftLittleProximal
                {
                  OFFSET 0.6721063881632002 0.08118279568569564 -0.3209324945517917
                  CHANNELS 3 Yrotation Xrotation Zrotation
                  JOINT leftLittleIntermediate
                  {
                    OFFSET 0.34587329423120616 5.3042709780015684e-8 -5.929537746918179e-8
                    CHANNELS 3 Yrotation Xrotation Zrotation
                    JOINT leftLittleDistal
                    {
                      OFFSET 0.1992782500022232 0.0030983716482184676 0.0038310952896712935
                      CHANNELS 3 Yrotation Xrotation Zrotation
                      End Site
                      {
                        OFFSET 0.1992782500022232 0.0030983716482184676 0.0038310952896712935
                      }
                    }
                  }
                }
                JOINT leftMiddleProximal
                {
                  OFFSET 0.7301229696860206 0.08118412848995638 0.022516891543707507
                  CHANNELS 3 Yrotation Xrotation Zrotation
                  JOINT leftMiddleIntermediate
                  {
                    OFFSET 0.4076277831942017 -0.000001240188283180288 -1.6203245635504349e-7
                    CHANNELS 3 Yrotation Xrotation Zrotation
                    JOINT leftMiddleDistal
                    {
                      OFFSET 0.2514739255593972 0.0000013850839168938478 -1.8644847207816007e-8
                      CHANNELS 3 Yrotation Xrotation Zrotation
                      End Site
                      {
                        OFFSET 0.2514739255593972 0.0000013850839168938478 -1.8644847207816007e-8
                      }
                    }
                  }
                }
                JOINT leftRingProximal
                {
                  OFFSET 0.7218060861525873 0.08118280646416753 -0.1494689818508163
                  CHANNELS 3 Yrotation Xrotation Zrotation
                  JOINT leftRingIntermediate
                  {
                    OFFSET 0.3781267508900358 0.000001373626195677602 -1.4143108284514483e-7
                    CHANNELS 3 Yrotation Xrotation Zrotation
                    JOINT leftRingDistal
                    {
                      OFFSET 0.21814333268795483 -0.0027137626495670197 -0.004991775417842292
                      CHANNELS 3 Yrotation Xrotation Zrotation
                      End Site
                      {
                        OFFSET 0.21814333268795483 -0.0027137626495670197 -0.004991775417842292
                      }
                    }
                  }
                }
                JOINT leftThumbProximal
                {
                  OFFSET 0.10743676110519984 -0.16423092885053192 -0.07708859146227388
                  CHANNELS 3 Yrotation Xrotation Zrotation
                  JOINT leftThumbIntermediate
                  {
                    OFFSET 0.40350402100066307 -0.01735099334274981 0.315629965828783
                    CHANNELS 3 Yrotation Xrotation Zrotation
                    JOINT leftThumbDistal
                    {
                      OFFSET 0.2320014489535681 -0.01842351809041043 0.21271298411519196
                      CHANNELS 3 Yrotation Xrotation Zrotation
                      End Site
                      {
                        OFFSET 0.2320014489535681 -0.01842351809041043 0.21271298411519196
                      }
                    }
                  }
                }
              }
            }
          }
        }
        JOINT rightShoulder
        {
          OFFSET -0.41379931360839656 1.1593397335613034 0
          CHANNELS 3 Yrotation Xrotation Zrotation
          JOINT rightUpperArm
          {
            OFFSET -1.0096991868951024 0 0
            CHANNELS 3 Yrotation Xrotation Zrotation
            JOINT rightLowerArm
            {
              OFFSET -2.4183809676716232 0 0
              CHANNELS 3 Yrotation Xrotation Zrotation
              JOINT rightHand
              {
                OFFSET -2.3615382962601132 0 0
                CHANNELS 3 Yrotation Xrotation Zrotation
                JOINT rightIndexProximal
                {
                  OFFSET -0.7243699271447109 0.08118285989887508 0.2022042461579805
                  CHANNELS 3 Yrotation Xrotation Zrotation
                  JOINT rightIndexIntermediate
                  {
                    OFFSET -0.36553107045252053 -0.010567764853200323 -0.014102670024158437
                    CHANNELS 3 Yrotation Xrotation Zrotation
                    JOINT rightIndexDistal
                    {
                      OFFSET -0.22505120770060527 -0.007821041598631284 -0.007511611613336286
                      CHANNELS 3 Yrotation Xrotation Zrotation
                      End Site
                      {
                        OFFSET -0.22505120770060527 -0.007821041598631284 -0.007511611613336286
                      }
                    }
                  }
                }
                JOINT rightLittleProximal
                {
                  OFFSET -0.6721063881632002 0.08118279568569564 -0.3209324945517917
                  CHANNELS 3 Yrotation Xrotation Zrotation
                  JOINT rightLittleIntermediate
                  {
                    OFFSET -0.34587329423120616 5.3042709780015684e-8 -5.929537746918179e-8
                    CHANNELS 3 Yrotation Xrotation Zrotation
                    JOINT rightLittleDistal
                    {
                      OFFSET -0.1992782500022232 0.0030983716482184676 0.0038310952896712935
                      CHANNELS 3 Yrotation Xrotation Zrotation
                      End Site
                      {
                        OFFSET -0.1992782500022232 0.0030983716482184676 0.0038310952896712935
                      }
                    }
                  }
                }
                JOINT rightMiddleProximal
                {
                  OFFSET -0.7301229696860206 0.08118412848995638 0.022516891543707507
                  CHANNELS 3 Yrotation Xrotation Zrotation
                  JOINT rightMiddleIntermediate
                  {
                    OFFSET -0.4076277831942017 -0.000001240188283180288 -1.6203245635504349e-7
                    CHANNELS 3 Yrotation Xrotation Zrotation
                    JOINT rightMiddleDistal
                    {
                      OFFSET -0.2514739255593972 0.0000013850839168938478 -1.8644847207816007e-8
                      CHANNELS 3 Yrotation Xrotation Zrotation
                      End Site
                      {
                        OFFSET -0.2514739255593972 0.0000013850839168938478 -1.8644847207816007e-8
                      }
                    }
                  }
                }
                JOINT rightRingProximal
                {
                  OFFSET -0.7218060861525873 0.08118280646416753 -0.1494689818508163
                  CHANNELS 3 Yrotation Xrotation Zrotation
                  JOINT rightRingIntermediate
                  {
                    OFFSET -0.3781267508900358 0.000001373626195677602 -1.4143108284514483e-7
                    CHANNELS 3 Yrotation Xrotation Zrotation
                    JOINT rightRingDistal
                    {
                      OFFSET -0.21814333268795483 -0.0027137626495670197 -0.004991775417842292
                      CHANNELS 3 Yrotation Xrotation Zrotation
                      End Site
                      {
                        OFFSET -0.21814333268795483 -0.0027137626495670197 -0.004991775417842292
                      }
                    }
                  }
                }
                JOINT rightThumbProximal
                {
                  OFFSET -0.10743676110519984 -0.16423092885053192 -0.07708859146227388
                  CHANNELS 3 Yrotation Xrotation Zrotation
                  JOINT rightThumbIntermediate
                  {
                    OFFSET -0.40350402100066307 -0.01735099334274981 0.315629965828783
                    CHANNELS 3 Yrotation Xrotation Zrotation
                    JOINT rightThumbDistal
                    {
                      OFFSET -0.2320014489535681 -0.01842351809041043 0.21271298411519196
                      CHANNELS 3 Yrotation Xrotation Zrotation
                      End Site
                      {
                        OFFSET -0.2320014489535681 -0.01842351809041043 0.21271298411519196
                      }
                    }
                  }
                }
              }
            }
          }
        }
      }
    }
  }
  JOINT leftUpperLeg
  {
    OFFSET 0.8487163290887698 -0.43932186100277326 0
    CHANNELS 3 Yrotation Xrotation Zrotation
    JOINT leftLowerLeg
    {
      OFFSET 0 -3.882816707004296 0
      CHANNELS 3 Yrotation Xrotation Zrotation
      JOINT leftFoot
      {
        OFFSET 0 -4.570431027442807 0.004629272230691511
        CHANNELS 3 Yrotation Xrotation Zrotation
        JOINT leftToes
        {
          OFFSET 0 -0.698875637876343 1.214565366696912
          CHANNELS 3 Yrotation Xrotation Zrotation
          End Site
          {
            OFFSET 0 -0.698875637876343 1.214565366696912
          }
        }
      }
    }
  }
  JOINT rightUpperLeg
  {
    OFFSET -0.8487163290887698 -0.43932186100277326 0
    CHANNELS 3 Yrotation Xrotation Zrotation
    JOINT rightLowerLeg
    {
      OFFSET 0 -3.882816707004296 0
      CHANNELS 3 Yrotation Xrotation Zrotation
      JOINT rightFoot
      {
        OFFSET 0 -4.570431027442807 0.004629272230691511
        CHANNELS 3 Yrotation Xrotation Zrotation
        JOINT rightToes
        {
          OFFSET 0 -0.698875637876343 1.214565366696912
          CHANNELS 3 Yrotation Xrotation Zrotation
          End Site
          {
            OFFSET 0 -0.698875637876343 1.214565366696912
          }
        }
      }
    }
  }
}
MOTION
Frames: 4
Frame Time: 0.03333333333333333
0.010964931920170784 0.7550810164934809 -0.41036227345466614 -36.300888277474776 -83.19888070350923 33.51341841960903 -0.4609731321883097 3.5815962653670113 -0.7587730889367086 -0.3617705231672306 14.164726125797806 1.6487164313343403 0 0 0 -1.1444268416645957 7.750116545971344 -0.14766004417627365 -5.647842844101937 23.522651966193248 -4.597328849546272 0 0 0 0 0 0 -3.5129817968027326 0.6330148531432935 -13.72880218156192 -31.52480845587977 28.025239355220386 -55.53166918161345 -86.6452248123351 0.6968617879386602 0.7388901344321198 -10.572498111591607 -15.8536637144404 0.4786065504160878 5.830800558154182 2.2067982819095806 -29.710497533118904 1.5534717176360764 0.24107597333508493 -17.643803660093997 1.5534841995969808 0.24108643215483497 -17.643805287331347 8.255006143101516 1.3755264682932828 -15.927389025692811 1.5534640364292926 0.24108453782778777 -17.643814458637536 1.5534683037664017 0.2410892869857375 -17.64379611602537 9.710164353800321 3.386283252357636 -28.4924958872753 1.583128141203056 0.2506072432248569 -17.9918581460331 1.5549284173571665 0.24154848787824335 -17.660997630373288 8.71951440434899 2.4322231262714737 -23.96025718603158 1.5524862889450335 0.24077824382419025 -17.63239609170784 1.5534824926621646 0.2410871525327262 -17.64383442848768 7.069543083662318 -2.7120209671609254 8.478374473234135 15.674927776319286 6.168646196281207 3.1480173170607975 20.211613927924198 -4.517586852031522 16.143525645517265 6.8590936780793275 0.27774667497506533 14.978147288739985 36.21568808616955 27.2508390681081 44.16550622932711 98.17062784777845 0.8452973095282345 -0.7326105772431771 21.458769110816053 -32.329964497172334 11.372556104877903 1.0842872083804873 -1.8116293837009698 24.05517090182589 -1.9368914822393355 0.5113999687692353 29.57830239027002 -1.9608989083344515 0.5251343335481501 29.981846672501835 -3.578792529446145 0.2697917349734782 19.33009795017637 -1.6701424089007952 0.37322186476363894 25.191832148089127 -1.6701424089007952 0.3732173823568999 25.191839782441594 -3.8830869620747404 0.39102781695293715 24.1133930252999 -1.9604676160596584 0.5248856081709894 29.974618579174845 -1.9604693226790997 0.5248872624268442 29.974603332801653 -3.601038642005333 0.2776843487667477 19.674751022995267 -1.9604701759888186 0.5248889700457917 29.97461095598831 -1.960472095935684 0.5248850745400686 29.97461391442743 5.600850890935509 -4.631860982857541 -12.592738769597155 -14.560071904208101 6.1787477200988254 -3.5227968923331843 -51.95904263137108 -1.5807806993481277 -21.642671373272147 16.90978161438794 -12.62604353671793 14.809566188820295 3.878199899634717 9.589817915044838 0.608400832233871 32.02387339096983 21.16333241959373 -12.034518386381041 -0.000008736334687002204 -0.5193856901319022 0.000011830608761734382 -13.064644148785533 -9.37596816007771 -7.690555914027868 -0.49521708538265274 6.682821056696011 -0.031132452018003163 -33.771204318307355 25.557390735073742 11.326884714212024 -0.0000022645159016375215 -11.135965324497 -0.000007262881185567555
0.01119066122919321 0.7552583999163325 -0.41022512316703796 -36.205327550741806 -83.19813095630059 33.407213606388694 -0.4420387688792286 3.616369034425882 -0.7648957345796974 -0.2699960319721934 14.158965669633245 1.6510029844769418 0 0 0 -1.1442080027246242 7.711321075826298 -0.13814095687117717 -5.685402142589761 23.336865616397052 -4.523568449832817 0 0 0 0 0 0 -3.527912719544419 0.6376563587623403 -13.680628536562518 -31.574947612835874 27.958682763401413 -55.56824000339339 -86.6178018763573 0.6964936775633664 0.7388696093288452 -10.556973188544742 -15.80596266638002 0.4056191681180444 5.830800558154182 2.2067982819095806 -29.710497533118904 1.5534717176360764 0.24107597333508493 -17.643803660093997 1.5534841995969808 0.24108643215483497 -17.643805287331347 8.255006143101516 1.3755264682932828 -15.927389025692811 1.5534640364292926 0.24108453782778777 -17.643814458637536 1.5534683037664017 0.2410892869857375 -17.64379611602537 9.710164353800321 3.386283252357636 -28.4924958872753 1.583128141203056 0.2506072432248569 -17.9918581460331 1.5549284173571665 0.24154848787824335 -17.660997630373288 8.71951440434899 2.4322231262714737 -23.96025718603158 1.5524862889450335 0.24077824382419025 -17.63239609170784 1.5534824926621646 0.2410871525327262 -17.64383442848768 7.069543083662318 -2.7120209671609254 8.478374473234135 15.674927776319286 6.168646196281207 3.1480173170607975 20.211613927924198 -4.517586852031522 16.143525645517265 6.838193478882628 0.28553161054103215 14.997893809631318 36.12574048982728 27.238675762166054 44.196411151131485 98.20005537154019 0.8456669270372349 -0.732556128308875 21.432426750037823 -32.28761825242713 11.40849727821086 1.0842872083804873 -1.8116293837009698 24.05517090182589 -1.9368914822393355 0.5113999687692353 29.57830239027002 -1.9608989083344515 0.5251343335481501 29.981846672501835 -3.578792529446145 0.2697917349734782 19.33009795017637 -1.6701424089007952 0.37322186476363894 25.191832148089127 -1.6701424089007952 0.3732173823568999 25.191839782441594 -3.8830869620747404 0.39102781695293715 24.1133930252999 -1.9604676160596584 0.5248856081709894 29.974618579174845 -1.9604693226790997 0.5248872624268442 29.974603332801653 -3.601038642005333 0.2776843487667477 19.674751022995267 -1.9604701759888186 0.5248889700457917 29.97461095598831 -1.960472095935684 0.5248850745400686 29.97461391442743 5.600850890935509 -4.631860982857541 -12.592738769597155 -14.560071904208101 6.1787477200988254 -3.5227968923331843 -51.95904263137108 -1.5807806993481277 -21.642671373272147 16.875226085212535 -12.626191400214095 14.82194343924737 3.907792422422573 9.577787679698984 0.6121785745530723 32.013101208428 21.122542425101955 -12.05095300111502 0.000002829478816995527 -0.5194073021653279 -0.000015461997479314526 -13.063340243778288 -9.384640645906066 -7.678373752811447 -0.49328285733984845 6.676579007857482 -0.03078380735466559 -33.76224278871852 25.525053752630836 11.370954889475387 5.25020863503112e-7 -11.152126334674676 0.0000030581566732674643
0.011366039514541626 0.7563341445452387 -0.41016438603401184 -35.83984456471185 -83.17171163045809 33.02860699061616 -0.400058718452759 3.717216199456819 -0.7820244662466305 -0.09078334147396286 14.124443855122182 1.6506844019730884 0 0 0 -1.1566483033414408 7.584275571618654 -0.08674151096984069 -5.714545702007057 23.039446875754365 -4.39631824219058 0 0 0 0 0 0 -3.409312655031054 0.6866315533939925 -13.640697290115863 -31.797175188424273 27.81872247675794 -55.54262141965321 -86.55044021553809 0.6956400543682095 0.7388295103019722 -10.522287952650352 -15.73988024926473 0.2503464534518855 5.830800558154182 2.2067982819095806 -29.710497533118904 1.5534717176360764 0.24107597333508493 -17.643803660093997 1.5534841995969808 0.24108643215483497 -17.643805287331347 8.255006143101516 1.3755264682932828 -15.927389025692811 1.5534640364292926 0.24108453782778777 -17.643814458637536 1.5534683037664017 0.2410892869857375 -17.64379611602537 9.710164353800321 3.386283252357636 -28.4924958872753 1.583128141203056 0.2506072432248569 -17.9918581460331 1.5549284173571665 0.24154848787824335 -17.660997630373288 8.71951440434899 2.4322231262714737 -23.96025718603158 1.5524862889450335 0.24077824382419025 -17.63239609170784 1.5534824926621646 0.2410871525327262 -17.64383442848768 7.069543083662318 -2.7120209671609254 8.478374473234135 15.674927776319286 6.168646196281207 3.1480173170607975 20.211613927924198 -4.517586852031522 16.143525645517265 6.634959595555058 0.34413733520917605 15.136364053854624 36.01493412730588 27.18703540028261 44.175429767948756 98.23061874163847 0.8460692583507553 -0.7325059580432858 21.30986440146454 -32.2422351773874 11.606642687534213 1.0842872083804873 -1.8116293837009698 24.05517090182589 -1.9368914822393355 0.5113999687692353 29.57830239027002 -1.9608989083344515 0.5251343335481501 29.981846672501835 -3.578792529446145 0.2697917349734782 19.33009795017637 -1.6701424089007952 0.37322186476363894 25.191832148089127 -1.6701424089007952 0.3732173823568999 25.191839782441594 -3.8830869620747404 0.39102781695293715 24.1133930252999 -1.9604676160596584 0.5248856081709894 29.974618579174845 -1.9604693226790997 0.5248872624268442 29.974603332801653 -3.601038642005333 0.2776843487667477 19.674751022995267 -1.9604701759888186 0.5248889700457917 29.97461095598831 -1.960472095935684 0.5248850745400686 29.97461391442743 5.600850890935509 -4.631860982857541 -12.592738769597155 -14.560071904208101 6.1787477200988254 -3.5227968923331843 -51.95904263137108 -1.5807806993481277 -21.642671373272147 16.82302519844495 -12.538689492027896 14.826064574678089 4.01095448515472 9.321329207006784 0.6100360813454125 31.979244910247935 21.109396085264883 -12.015611430053662 -0.00001969569908691637 -0.5193985506258577 2.0233294700274238e-7 -13.037044043271697 -9.399573544698885 -7.65877434978479 -0.5211683849602926 6.63209311821438 -0.03316282148969978 -33.737131930060386 25.453576915473477 11.470689976754525 0.000015706121264608867 -11.186849616357089 -0.00001461591171403213
0.011307801119983196 0.7579811400896723 -0.4103315472602844 -35.31419945924613 -83.11806422431138 32.497217974907755 -0.36744989782551324 3.835420416821394 -0.80247935333647 0.04079885414778218 14.19802728210288 1.6452850616900374 0 0 0 -1.16318958143024 7.431682017783284 -0.030554180592076156 -5.6774083209838615 22.85842710898759 -4.292218506221752 0 0 0 0 0 0 -3.052886706957283 0.7933469668929838 -13.682556542545777 -32.198996091263986 27.62660420007667 -55.34554031407149 -86.46292036455384 0.6944942591856084 0.7387600724263954 -10.521729715805161 -15.706899426731601 0.13247177271469168 5.830800558154182 2.2067982819095806 -29.710497533118904 1.5534717176360764 0.24107597333508493 -17.643803660093997 1.5534841995969808 0.24108643215483497 -17.643805287331347 8.255006143101516 1.3755264682932828 -15.927389025692811 1.5534640364292926 0.24108453782778777 -17.643814458637536 1.5534683037664017 0.2410892869857375 -17.64379611602537 9.710164353800321 3.386283252357636 -28.4924958872753 1.583128141203056 0.2506072432248569 -17.9918581460331 1.5549284173571665 0.24154848787824335 -17.660997630373288 8.71951440434899 2.4322231262714737 -23.96025718603158 1.5524862889450335 0.24077824382419025 -17.63239609170784 1.5534824926621646 0.2410871525327262 -17.64383442848768 7.069543083662318 -2.7120209671609254 8.478374473234135 15.674927776319286 6.168646196281207 3.1480173170607975 20.211613927924198 -4.517586852031522 16.143525645517265 6.223830929905234 0.4649105719611021 15.370766410491434 36.129237372009314 27.104383764481625 43.90563982038756 98.21792881569345 0.8458867443394527 -0.7325214428101164 21.220652202772612 -32.27314506070938 11.769353101775812 1.0842872083804873 -1.8116293837009698 24.05517090182589 -1.9368914822393355 0.5113999687692353 29.57830239027002 -1.9608989083344515 0.5251343335481501 29.981846672501835 -3.578792529446145 0.2697917349734782 19.33009795017637 -1.6701424089007952 0.37322186476363894 25.191832148089127 -1.6701424089007952 0.3732173823568999 25.191839782441594 -3.8830869620747404 0.39102781695293715 24.1133930252999 -1.9604676160596584 0.5248856081709894 29.974618579174845 -1.9604693226790997 0.5248872624268442 29.974603332801653 -3.601038642005333 0.2776843487667477 19.674751022995267 -1.9604701759888186 0.5248889700457917 29.97461095598831 -1.960472095935684 0.5248850745400686 29.97461391442743 5.600850890935509 -4.631860982857541 -12.592738769597155 -14.560071904208101 6.1787477200988254 -3.5227968923331843 -51.95904263137108 -1.5807806993481277 -21.642671373272147 16.79993673642774 -12.371875343615834 14.807801119784166 4.104458980297707 8.840111900846846 0.589326482184851 31.966991270749038 21.15940671795625 -11.913993736342968 -0.000016991608889761365 -0.5193801937382279 -5.351884707185883e-7 -12.978823880669985 -9.423006583536738 -7.641216180331561 -0.5735275573999217 6.55646711129751 -0.037722754506748654 -33.707844381659264 25.378825608396983 11.582484411903812 0.000001601132873462292 -11.23109258596682 0.0000095959633565112
